<?xml version="1.0" encoding="UTF-8"?>
<svg version="1.1" xmlns="http://www.w3.org/2000/svg" width="500" height="500">
<path d="M0 0 C165 0 330 0 500 0 C500 165 500 330 500 500 C335 500 170 500 0 500 C0 335 0 170 0 0 Z " fill="#FDFDFD" transform="translate(0,0)"/>
<path d="M0 0 C165 0 330 0 500 0 C500 165 500 330 500 500 C335 500 170 500 0 500 C0 335 0 170 0 0 Z M27 77 C27 209.33 27 341.66 27 478 C96.4546875 478.2475 96.4546875 478.2475 167.3125 478.5 C188.71992065 478.57831055 188.71992065 478.57831055 210.55981445 478.65820312 C224.09053688 478.70510698 224.09053688 478.70510698 237.6212616 478.75134277 C243.35397379 478.77094889 249.08667819 478.79185183 254.81938171 478.81384277 C327.54655821 479.0882325 400.27154054 479 473 479 C473 346.34 473 213.68 473 77 C325.82 77 178.64 77 27 77 Z " fill="#010101" transform="translate(0,0)"/>
<path d="M0 0 C4.16638532 1.84096095 5.93649601 3.98159749 8 8 C9.32 5.69 10.64 3.38 12 1 C13 3 13 3 12.29418945 5.34960938 C11.70963989 6.83170898 11.70963989 6.83170898 11.11328125 8.34375 C10.67483887 9.47264648 10.23639648 10.60154297 9.78466797 11.76464844 C9.54504333 12.37240112 9.3054187 12.98015381 9.05853271 13.60632324 C7.78044786 16.85052358 6.52769454 20.10440216 5.27734375 23.359375 C5.01274353 24.04759338 4.74814331 24.73581177 4.4755249 25.44488525 C0.70357421 35.31652072 -2.73596018 45.30883601 -6.2019043 55.29101562 C-6.44896622 55.99941589 -6.69602814 56.70781616 -6.95057678 57.43768311 C-7.62282255 59.36607485 -8.29127219 61.29578874 -8.95947266 63.22558594 C-10 66 -10 66 -11 67 C-13.35313555 67.07271741 -15.70833668 67.08370868 -18.0625 67.0625 C-19.99802734 67.04896484 -19.99802734 67.04896484 -21.97265625 67.03515625 C-22.97167969 67.02355469 -23.97070312 67.01195312 -25 67 C-25.30679687 67.76699219 -25.61359375 68.53398437 -25.9296875 69.32421875 C-26.953125 71.8828125 -27.9765625 74.44140625 -29 77 C-27.824375 77.0825 -26.64875 77.165 -25.4375 77.25 C24.71050325 83.11345884 74.63138896 115.73094172 111.41235352 148.6003418 C114.51767842 151.33797484 117.71522147 153.96388829 120.9375 156.5625 C122 158 122 158 121.7890625 159.8515625 C120.80569969 162.5290355 119.49071855 163.83964226 117.4375 165.8125 C116.34115234 166.86630859 116.34115234 166.86630859 115.22265625 167.94140625 C112.63795363 170.33532238 110.03074662 172.68811267 107.35546875 174.98046875 C105.57321733 176.50853506 103.80786565 178.05634156 102.05078125 179.61328125 C93.17180692 187.43365954 83.82012899 194.48097767 74.22314453 201.39404297 C72.24238223 202.82490772 70.27329625 204.26987182 68.30859375 205.72265625 C59.22408067 212.39693933 49.71731742 218.29439992 40 224 C39.31019043 224.40686035 38.62038086 224.8137207 37.90966797 225.23291016 C6.46398179 243.63334401 -27.31682504 258.33318528 -63 266 C-64.69296794 266.38949832 -66.38568385 266.780094 -68.078125 267.171875 C-76.77172256 269.11915152 -85.43910176 270.40167756 -94.3125 271.1875 C-95.293396 271.28329346 -96.27429199 271.37908691 -97.28491211 271.4777832 C-102.54692004 271.91694546 -107.58744125 272.02314587 -112.8553772 271.56628418 C-125.63275265 270.35216487 -125.63275265 270.35216487 -138 273 C-144.85425298 279.41212105 -148.41301047 288.19838245 -151.66088867 296.85620117 C-153.47382686 301.11239169 -155.72437434 304.72437434 -159 308 C-162.01107177 308.34553283 -164.09312777 308.57248153 -167 308 C-170 305.5 -170 305.5 -172 303 C-173.65 305.97 -175.3 308.94 -177 312 C-178.44656182 307.66031455 -176.62115867 304.53996961 -175.0625 300.44140625 C-174.74474609 299.58304672 -174.42699219 298.72468719 -174.09960938 297.84031677 C-173.07505677 295.07773511 -172.03802639 292.32004385 -171 289.5625 C-169.99728133 286.87603944 -168.99722934 284.18860159 -167.99804688 281.50082397 C-167.33271005 279.71128683 -166.66604313 277.92224365 -165.99804688 276.13369751 C-163.27855411 268.82762846 -160.69040816 261.47943061 -158.16992188 254.10243225 C-156.1044925 248.1044925 -156.1044925 248.1044925 -155 247 C-153.14712498 246.92773498 -151.29166122 246.9161878 -149.4375 246.9375 C-148.42558594 246.94652344 -147.41367188 246.95554687 -146.37109375 246.96484375 C-145.19740234 246.98224609 -145.19740234 246.98224609 -144 247 C-143.55527344 245.86498047 -143.55527344 245.86498047 -143.1015625 244.70703125 C-141.88542557 241.71843944 -140.46910863 238.87143959 -139 236 C-140.29808594 235.88011719 -141.59617188 235.76023437 -142.93359375 235.63671875 C-147.77323531 235.094989 -152.365633 234.07789296 -157.0625 232.8125 C-157.88613037 232.59182861 -158.70976074 232.37115723 -159.55834961 232.14379883 C-167.58376727 229.93284843 -175.31243553 227.18266659 -183 224 C-183.68320313 223.71817871 -184.36640625 223.43635742 -185.0703125 223.14599609 C-211.65909067 212.0407661 -236.31144155 197.73095473 -259 180 C-260.41732422 178.90365234 -260.41732422 178.90365234 -261.86328125 177.78515625 C-266.96211395 173.78062979 -271.81738678 169.55524631 -276.59375 165.171875 C-279.50886255 162.54070198 -282.5360245 160.05911082 -285.6015625 157.60546875 C-287 156 -287 156 -287 152 C-285.09375 149.66796875 -285.09375 149.66796875 -282.5 147.1875 C-281.57832031 146.30320312 -280.65664063 145.41890625 -279.70703125 144.5078125 C-276.19892126 141.25787511 -272.64776022 138.09197189 -269 135 C-268.06800781 134.19046875 -267.13601563 133.3809375 -266.17578125 132.546875 C-224.36730391 96.39495492 -172.13445914 64.89372375 -118.17626953 51.54882812 C-115.90830641 50.97687602 -113.65624076 50.3593299 -111.40234375 49.734375 C-84.24805665 42.34001531 -57.93463037 41.43736898 -30 42 C-29.74404053 41.14929932 -29.48808105 40.29859863 -29.22436523 39.42211914 C-27.92308942 35.78503378 -26.28768468 32.62082893 -24.41015625 29.24609375 C-24.06496445 28.6227565 -23.71977264 27.99941925 -23.36412048 27.35719299 C-22.26828512 25.38130463 -21.16542407 23.40943844 -20.0625 21.4375 C-19.32572756 20.11027259 -18.58939536 18.7828007 -17.85351562 17.45507812 C-15.91414735 13.96328527 -13.9703585 10.47444483 -12 7 C-11.49009521 6.07968994 -10.98019043 5.15937988 -10.45483398 4.21118164 C-7.62236167 -0.09385305 -4.86398251 -0.48639825 0 0 Z " fill="#1E1E1E" transform="translate(327,162)"/>
<path d="M0 0 C165 0 330 0 500 0 C500 165 500 330 500 500 C499.01 499.67 498.02 499.34 497 499 C497.33 498.34 497.66 497.68 498 497 C498.09637028 494.62806301 498.13198239 492.28563749 498.12304783 489.91349602 C498.12420157 489.17140947 498.12535532 488.42932293 498.12654402 487.66474891 C498.12921139 485.15358298 498.12468853 482.64247987 498.12025452 480.13131714 C498.12069159 478.32731104 498.12156786 476.52330501 498.12284851 474.71929932 C498.12510202 469.73199032 498.12106376 464.7447026 498.11607273 459.75739631 C498.11172314 454.30793552 498.11316621 448.8584758 498.11389065 443.40901375 C498.11442352 432.81837243 498.10979442 422.22773955 498.10338932 411.63710041 C498.0962054 399.39356414 498.09539545 387.15003298 498.09460449 374.90649414 C498.08934847 342.56266142 498.07538744 310.21883058 498.0625 277.875 C498.041875 205.64625 498.02125 133.4175 498 59 C333.99 58.67 169.98 58.34 1 58 C1.144375 130.55875 1.28875 203.1175 1.4375 277.875 C1.48060303 300.82788574 1.52370605 323.78077148 1.56811523 347.42919922 C1.61134469 367.91456747 1.61134469 367.91456747 1.65589905 388.39993286 C1.67578557 397.55984201 1.69293876 406.71975138 1.70826721 415.87966919 C1.72593322 426.43090041 1.74700377 436.98211811 1.77237374 447.53333373 C1.78525615 452.93649663 1.79654771 458.33965021 1.80346954 463.74282432 C1.80974671 468.62004093 1.82052941 473.49722511 1.83504486 478.37442398 C1.83949591 480.14576567 1.84223234 481.91711259 1.84315884 483.68845963 C1.84465672 486.08643155 1.8521905 488.48430819 1.8613348 490.88226128 C1.86031219 491.58294951 1.85928958 492.28363775 1.85823598 493.00555896 C1.83839707 496.62522369 1.83839707 496.62522369 3 500 C2.01 500 1.02 500 0 500 C0 335 0 170 0 0 Z " fill="#202123" transform="translate(0,0)"/>
<path d="M0 0 C0.77611307 -0.00320648 1.55222614 -0.00641296 2.35185778 -0.0097166 C4.95601456 -0.01802686 7.55994196 -0.01208872 10.16410255 -0.00622082 C12.04861465 -0.00924103 13.93312553 -0.01312986 15.81763422 -0.01781338 C20.99917351 -0.02811889 26.1806438 -0.02590506 31.36218882 -0.02163279 C36.94920827 -0.0191702 42.53621092 -0.02817392 48.12322426 -0.03567028 C59.06995986 -0.04843231 70.01667096 -0.0502091 80.96341275 -0.04787002 C89.85956247 -0.04608837 98.75570473 -0.04783319 107.65185356 -0.05209446 C108.91707093 -0.05268965 110.18228829 -0.05328484 111.48584557 -0.05389806 C114.05597952 -0.05510979 116.62611347 -0.05632392 119.19624741 -0.05754044 C136.4579707 -0.06532991 153.7196904 -0.0692452 170.98141479 -0.06522369 C171.65648409 -0.06506732 172.33155339 -0.06491094 173.02707933 -0.06474983 C176.44861369 -0.06394404 179.87014805 -0.06309827 183.29168241 -0.06223653 C184.31097712 -0.06197989 184.31097712 -0.06197989 185.35086365 -0.06171808 C186.72503808 -0.06137142 188.0992125 -0.06102289 189.47338693 -0.06067249 C210.85611777 -0.05531514 232.23880738 -0.06324589 253.62153053 -0.08170605 C277.6444176 -0.10242121 301.66727563 -0.11311859 325.6901747 -0.10913056 C338.41010975 -0.10721635 351.13000722 -0.10972745 363.84993553 -0.1238451 C374.67850495 -0.13574174 385.50701368 -0.13718308 396.33558391 -0.12505493 C401.86158328 -0.11915419 407.38747154 -0.11809984 412.91346359 -0.13005733 C417.9715368 -0.14087522 423.02940558 -0.13786163 428.08746906 -0.12379565 C429.91783705 -0.12113741 431.74822086 -0.12355044 433.57857339 -0.13153151 C436.06668241 -0.14162811 438.5540795 -0.13322391 441.04216003 -0.12025452 C442.10784204 -0.13121854 442.10784204 -0.13121854 443.19505298 -0.14240405 C451.34326859 -0.05437913 457.58373473 2.83437567 463.44770241 8.38728809 C469.64503706 15.19723284 468.14692116 20.67242454 468.14692116 30.25447559 C305.12692116 30.25447559 142.10692116 30.25447559 -25.85307884 30.25447559 C-25.85307884 13.44052211 -25.85307884 13.44052211 -19.17339134 6.51228809 C-13.41955001 1.16760881 -7.7748315 -0.04779773 0 0 Z " fill="#3A74D3" transform="translate(28.853078842163086,1.7455244064331055)"/>
<path d="M0 0 C5.25597912 -0.2113299 9.7972151 0.47509377 14.8125 1.9375 C15.95235352 2.2636731 15.95235352 2.2636731 17.11523438 2.59643555 C63.62950373 16.24596134 105.23188209 39.26757389 141.41235352 71.6003418 C144.51767842 74.33797484 147.71522147 76.96388829 150.9375 79.5625 C152 81 152 81 151.7890625 82.8515625 C150.80569969 85.5290355 149.49071855 86.83964226 147.4375 88.8125 C146.70660156 89.51503906 145.97570312 90.21757812 145.22265625 90.94140625 C142.63795363 93.33532238 140.03074662 95.68811267 137.35546875 97.98046875 C135.57321733 99.50853506 133.80786565 101.05634156 132.05078125 102.61328125 C123.17180692 110.43365954 113.82012899 117.48097767 104.22314453 124.39404297 C102.24238223 125.82490772 100.27329625 127.26987182 98.30859375 128.72265625 C89.22408067 135.39693933 79.71731742 141.29439992 70 147 C69.31019043 147.40686035 68.62038086 147.8137207 67.90966797 148.23291016 C36.46398179 166.63334401 2.68317496 181.33318528 -33 189 C-34.69296794 189.38949832 -36.38568385 189.780094 -38.078125 190.171875 C-60.17321112 195.1187314 -84.50700045 197.25419554 -107 194 C-105.7550659 191.45574147 -104.50426112 188.91465639 -103.25 186.375 C-102.90195313 185.66214844 -102.55390625 184.94929687 -102.1953125 184.21484375 C-101.67324219 183.16103516 -101.67324219 183.16103516 -101.140625 182.0859375 C-100.82641602 181.4470459 -100.51220703 180.8081543 -100.18847656 180.14990234 C-99.60018066 179.08570068 -99.60018066 179.08570068 -99 178 C-98.45037598 176.95295898 -97.90075195 175.90591797 -97.33447266 174.82714844 C-94.80596039 171.76500955 -93.512923 171.2129119 -89.61988831 170.81243896 C-88.92290329 170.76863098 -88.22591827 170.724823 -87.5078125 170.6796875 C-86.77388779 170.61042053 -86.03996307 170.54115356 -85.28379822 170.4697876 C-83.7136119 170.32392753 -82.14226286 170.19016555 -80.57009888 170.06744385 C-76.45919544 169.74389126 -72.35759737 169.32530952 -68.25390625 168.921875 C-67.44555832 168.84498444 -66.63721039 168.76809387 -65.80436707 168.68887329 C-15.87249455 163.87780167 30.91463834 141.63128395 67 107 C67.48243164 106.53948242 67.96486328 106.07896484 68.46191406 105.60449219 C73.43787914 100.82930579 78.24534816 95.91164484 82.75 90.6875 C83.40484375 89.92824219 84.0596875 89.16898437 84.734375 88.38671875 C86.47143959 85.11095806 86.05803754 83.51483658 85 80 C68.25634232 49.11820281 38.41054837 29.41576843 7.4453125 15.078125 C3.2529675 13.13528618 -0.87669509 11.08513369 -5 9 C-3.35 6.03 -1.7 3.06 0 0 Z " fill="#1B1B1B" transform="translate(297,239)"/>
<path d="M0 0 C0.68906698 -0.00295142 1.37813395 -0.00590285 2.08808175 -0.00894371 C4.4201437 -0.01767453 6.75215629 -0.01921895 9.08423328 -0.02082157 C10.7638903 -0.02554983 12.44354617 -0.03070037 14.12320071 -0.03623921 C18.75700723 -0.05017977 23.39080587 -0.05773862 28.02462804 -0.0642122 C31.99466102 -0.07057325 35.96468099 -0.08064473 39.93470588 -0.09077286 C53.01686874 -0.12413277 66.09903951 -0.14562468 79.18123099 -0.16397271 C82.58634023 -0.16876571 85.99144915 -0.17374927 89.39655805 -0.17877793 C110.52867588 -0.20974658 131.66079643 -0.23644024 152.7929306 -0.25319672 C157.69006512 -0.25714641 162.58719958 -0.26114937 167.48433399 -0.2652216 C168.70153764 -0.26622996 169.91874129 -0.26723832 171.1728299 -0.26827724 C190.8974082 -0.28528958 210.62186115 -0.32640355 230.34637823 -0.37724458 C250.58386707 -0.42897997 270.82129139 -0.4581336 291.05884582 -0.4653936 C302.42687206 -0.47006097 313.79469304 -0.48486577 325.16265392 -0.5251379 C334.84295162 -0.55938909 344.52300705 -0.57339714 354.20336189 -0.56071376 C359.14406458 -0.55487539 364.08425457 -0.55883353 369.02488041 -0.5888834 C373.54727035 -0.61616544 378.0687814 -0.61580835 382.5911902 -0.59337295 C384.22786541 -0.59013976 385.86459863 -0.59707805 387.50117704 -0.61517017 C401.25746305 -0.75803397 401.25746305 -0.75803397 405.85891914 3.06032372 C409.78767561 7.81856297 409.96644579 11.11446939 409.40157032 17.1398077 C407.55028716 21.76801559 404.67122597 23.7063087 400.40157032 26.1398077 C397.0547381 26.64350569 397.0547381 26.64350569 393.3265667 26.64875889 C392.63457272 26.65517184 391.94257874 26.6615848 391.22961524 26.66819209 C388.91135567 26.68479225 386.59412959 26.6729456 384.27585316 26.66120052 C382.59686301 26.66724198 380.91787836 26.67502016 379.23890346 26.68438566 C374.62543851 26.70498382 370.01228373 26.70057255 365.3987931 26.69202447 C360.42322379 26.68709691 355.44772984 26.70510959 350.472188 26.72009945 C340.72492944 26.74561652 330.97778102 26.74917802 321.23049469 26.74449892 C313.30925054 26.74093503 305.38803987 26.74442656 297.46679974 26.75294781 C296.34006171 26.75413819 295.21332369 26.75532856 294.05244208 26.75655501 C291.7635924 26.75897847 289.47474272 26.76140674 287.18589305 26.76383977 C265.71448097 26.78559951 244.24313168 26.7812615 222.77171605 26.76907007 C203.12174015 26.75872964 183.47196247 26.78124648 163.82202578 26.81926651 C143.65219189 26.85799377 123.48245185 26.8745406 103.31258053 26.86702001 C91.98599725 26.86319158 80.65958274 26.86821375 69.33302975 26.89644909 C59.69122874 26.92024109 50.04970038 26.92312681 40.40789575 26.89886875 C35.48743711 26.88706621 30.56747761 26.88496001 25.64705181 26.90887356 C21.14329169 26.93050797 16.64044991 26.92448669 12.13673352 26.89635019 C10.50692075 26.89103302 8.87703697 26.89586246 7.24729366 26.91182192 C-6.44723525 27.03662669 -6.44723525 27.03662669 -11.05172348 23.28052998 C-14.61509018 19.54396525 -15.04864011 15.48273502 -15.02421093 10.4991827 C-14.28454195 6.40046652 -11.6664476 3.81041397 -8.59842968 1.1398077 C-5.71318646 -0.30281391 -3.22579841 0.00750437 0 0 Z " fill="#000000" transform="translate(52.598429679870605,130.86019229888916)"/>
<path d="M0 0 C6.71448193 0.77383214 10.37037165 5.44649409 15 10 C15.76957031 10.74507813 16.53914063 11.49015625 17.33203125 12.2578125 C27.63115582 22.89963999 33.79817848 35.64986727 37 50 C37.17370117 50.67877197 37.34740234 51.35754395 37.52636719 52.05688477 C42.67709755 72.96967638 37.72227364 94.52631721 27.3125 113 C16.86086779 129.55283882 3.01606338 140.5927426 -15 148 C-15.64453125 148.27247559 -16.2890625 148.54495117 -16.953125 148.82568359 C-36.24188523 156.52672112 -61.69953631 154.51437215 -82 152 C-83 149 -83 149 -81.90771484 146.38037109 C-78.75240248 140.60274446 -78.75240248 140.60274446 -77.36865234 138.14746094 C-76.38043867 136.38470141 -75.42218183 134.60779826 -74.46484375 132.828125 C-73.53478516 131.16136719 -73.53478516 131.16136719 -72.5859375 129.4609375 C-72.0192334 128.43790527 -71.4525293 127.41487305 -70.86865234 126.36083984 C-69 124 -69 124 -66.43579102 123.10180664 C-64 123 -64 123 -61.44140625 123.91015625 C-49.79898185 127.59714423 -33.58886444 126.68390838 -22.578125 121.4140625 C-21.30195313 120.71410156 -21.30195313 120.71410156 -20 120 C-19.19046875 119.61585938 -18.3809375 119.23171875 -17.546875 118.8359375 C-4.35649011 112.24074506 4.68922363 100.5105493 9.40356445 86.71386719 C14.37868933 70.47051764 12.40757538 55.58860225 5 40.375 C1.79180731 34.61995258 -2.23941345 30.33211203 -7.17578125 26.04443359 C-10.9549952 22.64433699 -10.9549952 22.64433699 -11.16015625 19.70703125 C-9.42401984 15.6560463 -7.22843039 11.9468947 -4.9375 8.1875 C-4.46505859 7.39923828 -3.99261719 6.61097656 -3.50585938 5.79882812 C-2.34368685 3.86187392 -1.17495583 1.92921705 0 0 Z " fill="#1B1B1B" transform="translate(291,250)"/>
<path d="M0 0 C-1.32 2.31 -2.64 4.62 -4 7 C-4.97646484 6.98952637 -5.95292969 6.97905273 -6.95898438 6.96826172 C-10.66418631 6.93141206 -14.36937299 6.90886945 -18.07470703 6.89013672 C-19.66295109 6.88022418 -21.25117765 6.86669017 -22.83935547 6.84912109 C-49.45354248 6.56258456 -73.44410565 10.74778347 -94 29 C-94.68578125 29.59167969 -95.3715625 30.18335938 -96.078125 30.79296875 C-105.03867343 39.06560106 -111.75810945 50.63110951 -116 62 C-116.391875 63.01191406 -116.78375 64.02382813 -117.1875 65.06640625 C-123.86546382 85.44810831 -121.45798271 108.37759517 -112.125 127.375 C-110.79290876 129.94155662 -109.41162566 132.47644766 -108 135 C-107.52820313 135.85335937 -107.05640625 136.70671875 -106.5703125 137.5859375 C-102.44705205 144.34418096 -95.17087434 153.41456283 -88 157 C-88 157.99 -88 158.98 -88 160 C-95.04740797 159.58956857 -100.72605594 156.62798481 -107 153.5625 C-108.11342773 153.02189941 -109.22685547 152.48129883 -110.37402344 151.92431641 C-119.12465835 147.59477385 -127.15593221 142.7875795 -135 137 C-136.59908203 135.87078125 -136.59908203 135.87078125 -138.23046875 134.71875 C-152.72912682 124.12289758 -165.22306461 111.06630916 -175 96 C-175.60231445 95.1030542 -175.60231445 95.1030542 -176.21679688 94.18798828 C-177.8605411 91.58539327 -178.98212435 89.57917122 -179.078125 86.46875 C-177.55132246 82.97259346 -175.26487669 80.31573133 -172.75 77.5 C-172.2142334 76.89051514 -171.6784668 76.28103027 -171.12646484 75.65307617 C-161.75235862 65.10686634 -151.91115387 55.64275568 -140.59765625 47.19628906 C-139.17825924 46.13347651 -137.77535682 45.04871467 -136.375 43.9609375 C-109.34957166 23.43850285 -77.37522361 9.75024813 -44 4 C-42.77144287 3.78585449 -42.77144287 3.78585449 -41.51806641 3.56738281 C-27.59236639 1.17520504 -14.15833786 -0.18602196 0 0 Z " fill="#FCFCFC" transform="translate(283,228)"/>
<path d="M0 0 C7.10124722 2.19626203 13.68538155 5.02007303 20.375 8.25 C21.39505127 8.74161621 22.41510254 9.23323242 23.46606445 9.73974609 C30.31813537 13.08476508 36.81036851 16.52411013 43 21 C44.46566406 22.04414063 44.46566406 22.04414063 45.9609375 23.109375 C52.68607129 28.02194125 58.95438066 33.276561 65 39 C65.88429688 39.81984375 66.76859375 40.6396875 67.6796875 41.484375 C75.12166876 48.61012476 81.30169337 56.4279481 87 65 C87.40879395 65.60521484 87.81758789 66.21042969 88.23876953 66.83398438 C89.89751577 69.46240454 90.99223058 71.43110546 91.03515625 74.57421875 C89.66689378 77.78059985 87.7186775 80.22344838 85.4375 82.8125 C84.9542627 83.36873047 84.47102539 83.92496094 83.97314453 84.49804688 C72.47033418 97.53528398 60.16040348 108.91280903 46 119 C45.39397949 119.44005371 44.78795898 119.88010742 44.16357422 120.33349609 C8.37079566 146.18328488 -38.00695842 161.58442336 -82.25 161.0625 C-83.00667969 161.05798828 -83.76335937 161.05347656 -84.54296875 161.04882812 C-86.36201555 161.03731517 -88.18102018 161.0193967 -90 161 C-88.125 155.25 -88.125 155.25 -87 153 C-86.1048896 153.01665459 -86.1048896 153.01665459 -85.19169617 153.03364563 C-78.87933608 153.14581327 -72.56726673 153.22030601 -66.25415039 153.2746582 C-63.9102831 153.2995264 -61.56649102 153.33343351 -59.22290039 153.37719727 C-34.10535899 153.83387984 -11.50550508 149.89136522 8 133 C8.804375 132.3915625 9.60875 131.783125 10.4375 131.15625 C25.02277017 118.88327876 34.5394425 97.24672208 36.22509766 78.49609375 C37.28980666 54.78169411 31.49189246 32.90018555 15.5625 14.75 C12.14563933 11.07614468 8.57215966 7.69314605 4.7265625 4.47265625 C3.06239232 3.05321698 1.5369813 1.55450213 0 0 Z " fill="#FCFCFC" transform="translate(293,249)"/>
<path d="M0 0 C47.19 0 94.38 0 143 0 C143 9.24 143 18.48 143 28 C143.99 28.33 144.98 28.66 146 29 C97.49 29 48.98 29 -1 29 C-0.67 19.43 -0.34 9.86 0 0 Z " fill="#336193" transform="translate(327,450)"/>
<path d="M0 0 C6.41933613 0.82491469 11.20728032 7.13035178 15 12 C23.56256049 25.18432051 28.470234 40.39983528 25.60888672 56.15332031 C22.20582037 71.48926097 14.33548961 85.28996251 1.375 94.5546875 C-3.50604827 97.52506227 -8.72368062 99.82662775 -14 102 C-14.86753906 102.37898438 -15.73507812 102.75796875 -16.62890625 103.1484375 C-21.83356705 104.46317221 -26.96543723 104.36874247 -32.3125 104.375 C-33.40240234 104.39949219 -34.49230469 104.42398438 -35.61523438 104.44921875 C-42.64734964 104.47459018 -47.85633956 103.47717194 -54 100 C-52.68242597 95.67105835 -50.99941847 91.91835849 -48.77734375 87.98046875 C-48.15666016 86.87638672 -47.53597656 85.77230469 -46.89648438 84.63476562 C-46.25001953 83.49716797 -45.60355469 82.35957031 -44.9375 81.1875 C-44.28015892 80.01912767 -43.62325378 78.85050996 -42.96679688 77.68164062 C-38.1555235 69.1555235 -38.1555235 69.1555235 -37 68 C-35.10811609 67.70283005 -33.2112072 67.43739135 -31.3125 67.1875 C-24.90846835 66.15434661 -21.18604191 64.36821207 -16.75 59.5625 C-12.68430348 53.60915867 -12.29534011 48.04659888 -13 41 C-14.30719263 37.63121229 -14.30719263 37.63121229 -16 35 C-16.80810547 33.25634766 -16.80810547 33.25634766 -17 31 C-15.97511669 28.63974194 -14.91518319 26.54880016 -13.6328125 24.3359375 C-13.27863251 23.70265533 -12.92445251 23.06937317 -12.55953979 22.41690063 C-11.42608731 20.39626292 -10.27596488 18.38570441 -9.125 16.375 C-8.35693984 15.01365949 -7.58999916 13.65168672 -6.82421875 12.2890625 C-5.42249608 9.79723501 -4.01389696 7.30956418 -2.59814453 4.82568359 C-1.69877796 3.23551117 -0.81700778 1.63401556 0 0 Z " fill="#FCFCFC" transform="translate(278,272)"/>
<path d="M0 0 C-2.27592712 5.96308223 -5.22848586 11.57878384 -8.17504883 17.23022461 C-8.85033544 18.53569188 -9.51637526 19.84598371 -10.1730957 21.16088867 C-11.12845942 23.07137744 -12.11326385 24.96390501 -13.10546875 26.85546875 C-13.68449951 27.98621826 -14.26353027 29.11696777 -14.86010742 30.28198242 C-17.59327093 33.75355222 -19.74046899 34.16045889 -24 35 C-30.60866765 37.51540983 -34.40868094 40.75965973 -38.1171875 46.828125 C-39.23505712 49.57828213 -39.26535905 51.78570239 -39.25 54.75 C-39.25515625 55.73484375 -39.2603125 56.7196875 -39.265625 57.734375 C-39.1414919 61.14185538 -39.1414919 61.14185538 -37.6015625 64.66796875 C-36.52597323 68.70913883 -37.59202209 70.9215965 -39.5078125 74.56640625 C-40.68864602 76.57991274 -41.89535926 78.57842343 -43.125 80.5625 C-43.72054687 81.56474609 -44.31609375 82.56699219 -44.9296875 83.59960938 C-46.08288218 85.53733362 -47.24558229 87.46944106 -48.41894531 89.39501953 C-50.3419281 92.56336826 -52.17986278 95.77174667 -54 99 C-62.52925556 95.19295031 -67.91346909 85.25275876 -71.23046875 76.90234375 C-76.30311147 62.12392253 -76.60995745 47.75153157 -71 33 C-68.74538817 28.3898052 -65.95636852 24.1916868 -63 20 C-62.2575 18.9275 -61.515 17.855 -60.75 16.75 C-44.0472659 0.0472659 -22.87812583 -6.15949542 0 0 Z " fill="#FCFCFC" transform="translate(263,263)"/>
<path d="M0 0 C0.67340424 -0.0065712 1.34680847 -0.0131424 2.0406189 -0.01991272 C4.27349965 -0.03965335 6.50631305 -0.05131122 8.73925781 -0.0612793 C9.50221413 -0.06535482 10.26517044 -0.06943035 11.05124664 -0.07362938 C15.09112783 -0.09449549 19.13097501 -0.10879364 23.17089844 -0.11816406 C27.33838016 -0.12921705 31.50532623 -0.16360195 35.67261887 -0.20333576 C38.88117445 -0.22951971 42.0896029 -0.23785754 45.29825592 -0.24144554 C46.83401346 -0.24630861 48.36976542 -0.25791474 49.9054184 -0.27648354 C52.0597687 -0.30090974 54.21274026 -0.29990438 56.3671875 -0.29296875 C57.5913739 -0.29883499 58.8155603 -0.30470123 60.07684326 -0.31074524 C64.85352787 0.38151063 67.79339183 2.69291007 71.31738281 5.86450195 C73.1181776 9.56613569 72.96280407 13.14373717 72.44238281 17.17700195 C70.59113934 21.80511064 67.71112202 23.74243653 63.44238281 26.17700195 C60.09703064 26.6782074 60.09703064 26.6782074 56.41479492 26.67871094 C55.73920029 26.68411392 55.06360565 26.68951691 54.36753845 26.69508362 C52.15114512 26.7075144 49.93606519 26.69112145 47.71972656 26.6730957 C46.17086214 26.67325081 44.62199734 26.67474167 43.07313538 26.67750549 C39.83430731 26.67888688 36.5959235 26.66637426 33.35717773 26.64355469 C29.21214685 26.61514663 25.06785227 26.6179171 20.92276669 26.6306448 C17.7270736 26.63760901 14.53154983 26.6298047 11.33587837 26.61738777 C9.8077109 26.61288213 8.2795252 26.6125287 6.75135612 26.61645317 C4.61405207 26.61937342 2.47775299 26.60282236 0.34057617 26.58105469 C-0.87376602 26.5756517 -2.08810822 26.57024872 -3.33924866 26.56468201 C-7.80318734 26.02696236 -10.42541339 24.46537179 -13.37011719 21.11450195 C-15.13532398 16.74793778 -15.47254287 12.80926348 -14.55761719 8.17700195 C-10.76161806 1.73425114 -7.33105317 0.05910579 0 0 Z " fill="#000000" transform="translate(389.5576171875,91.822998046875)"/>
<path d="M0 0 C1.34302437 -0.00855011 1.34302437 -0.00855011 2.71318054 -0.01727295 C4.61045142 -0.0267289 6.50773876 -0.03325929 8.4050293 -0.03710938 C11.30221405 -0.04680139 14.19868537 -0.07781331 17.09570312 -0.109375 C18.93879787 -0.11590643 20.78189769 -0.12115635 22.625 -0.125 C23.48974442 -0.1373468 24.35448883 -0.1496936 25.24543762 -0.16241455 C31.41795654 -0.13965788 34.65537583 1.10152186 39.32421875 5.265625 C41.7889089 9.55601156 41.6570679 13.36699002 41.01171875 18.203125 C39.67687321 21.68855501 38.61865863 22.82072658 35.47631836 24.80053711 C31.0890878 26.57663742 27.39096826 26.68848608 22.703125 26.70703125 C21.37570534 26.72200905 21.37570534 26.72200905 20.02146912 26.73728943 C18.1565313 26.75242446 16.29151284 26.75951666 14.42651367 26.7590332 C11.58570755 26.76559845 8.74839225 26.82013458 5.90820312 26.87695312 C4.08985562 26.88575599 2.27149163 26.89170967 0.453125 26.89453125 C-0.80968544 26.92686607 -0.80968544 26.92686607 -2.0980072 26.95985413 C-7.68740172 26.89544423 -10.60129367 25.60013773 -14.69129944 21.7842865 C-17.39461779 18.48864823 -17.43408453 14.64699411 -17.4140625 10.5625 C-16.67439352 6.46378382 -14.05629917 3.87373127 -10.98828125 1.203125 C-7.5948531 -0.49358908 -3.73405613 0.01822344 0 0 Z " fill="#010101" transform="translate(54.98828125,91.796875)"/>
<path d="M0 0 C6.6 0 13.2 0 20 0 C20 0.66 20 1.32 20 2 C20.7425 2.226875 21.485 2.45375 22.25 2.6875 C25.76679269 4.36596924 27.07869347 5.58434395 29 9 C29.75504652 13.18771172 29.98888504 17.1499457 27.94140625 20.98046875 C26.625 22.625 26.625 22.625 24 25 C23.34 25 22.68 25 22 25 C21.67 25.99 21.34 26.98 21 28 C13.74 28 6.48 28 -1 28 C-0.67 18.76 -0.34 9.52 0 0 Z " fill="#69879C" transform="translate(327,451)"/>
<path d="M0 0 C3.12578143 1.6720747 5.39281175 3.7856235 7 7 C7.60644601 12.38004242 8.0316689 16.595784 4.75 21.0625 C-0.10959425 24.48630504 -2.86952382 25.63418719 -9 25 C-12.70390021 22.97333762 -14.65363011 21.51955484 -17 18 C-17.65237324 13.62566572 -18.03401151 8.98730094 -15.94921875 4.98046875 C-11.41119977 -0.52137727 -6.79731424 -0.95766142 0 0 Z " fill="#4075CF" transform="translate(468,6)"/>
<path d="M0 0 C0.99 0.495 0.99 0.495 2 1 C1.67 1.99 1.34 2.98 1 4 C-1.75099196 5.28990957 -4.39570187 6.36461901 -7.25 7.375 C-8.09755859 7.67954102 -8.94511719 7.98408203 -9.81835938 8.29785156 C-34.73888231 16.97895681 -60.72747399 20.28015727 -87 20 C-85.125 14.25 -85.125 14.25 -84 12 C-83.1048896 12.01665459 -83.1048896 12.01665459 -82.19169617 12.03364563 C-75.87933608 12.14581327 -69.56726673 12.22030601 -63.25415039 12.2746582 C-60.9102831 12.2995264 -58.56649102 12.33343351 -56.22290039 12.37719727 C-36.55860053 12.73472999 -19.92180943 10.92488321 -2.58984375 1.2578125 C-1.73519531 0.84273438 -0.88054687 0.42765625 0 0 Z " fill="#F5F5F5" transform="translate(290,390)"/>
<path d="M0 0 C6.6 0 13.2 0 20 0 C20 0.66 20 1.32 20 2 C20.7425 2.226875 21.485 2.45375 22.25 2.6875 C25.76679269 4.36596924 27.07869347 5.58434395 29 9 C29.75504652 13.18771172 29.98888504 17.1499457 27.94140625 20.98046875 C26.625 22.625 26.625 22.625 24 25 C23.34 25 22.68 25 22 25 C21.67 25.99 21.34 26.98 21 28 C13.74 28 6.48 28 -1 28 C-0.67 18.76 -0.34 9.52 0 0 Z M7.25 6.5625 C5.28990882 10.38467781 5.1559722 13.80799524 6 18 C7.48210009 21.07648048 9.14485005 23.11408296 12 25 C15.89456259 26.07603779 19.17958669 25.80022335 22.875 24.17578125 C25.30989257 22.50764572 26.77411447 20.66065446 27.7265625 17.875 C28.45509529 13.64665281 28.23432715 11.47733308 26.3125 7.5625 C22.97872236 3.86831397 21.47337255 3.1052409 16.5 2.75 C12.24146207 3.05418128 10.38025567 3.76762886 7.25 6.5625 Z " fill="#89918E" transform="translate(327,451)"/>
<path d="M0 0 C-1.32 2.31 -2.64 4.62 -4 7 C-4.97646484 6.98952637 -5.95292969 6.97905273 -6.95898438 6.96826172 C-10.66418631 6.93141206 -14.36937299 6.90886945 -18.07470703 6.89013672 C-19.66295109 6.88022418 -21.25117765 6.86669017 -22.83935547 6.84912109 C-37.41683448 6.69217547 -51.3915315 7.26547293 -65.23046875 12.29296875 C-68.24671238 13.06298299 -70.037528 12.85028904 -73 12 C-52.5929464 0.94006208 -22.7716784 -0.67862618 0 0 Z " fill="#F2F2F2" transform="translate(283,228)"/>
<path d="M0 0 C5.28 0 10.56 0 16 0 C16 5.28 16 10.56 16 16 C10.72 16 5.44 16 0 16 C0 10.72 0 5.44 0 0 Z " fill="#E6D5CD" transform="translate(405,458)"/>
<path d="M0 0 C5.28 0 10.56 0 16 0 C16 4.95 16 9.9 16 15 C10.72 15 5.44 15 0 15 C0 10.05 0 5.1 0 0 Z " fill="#403D3B" transform="translate(426,458)"/>
<path d="M0 0 C4.95 0 9.9 0 15 0 C15 4.95 15 9.9 15 15 C10.05 15 5.1 15 0 15 C0 10.05 0 5.1 0 0 Z " fill="#E3D1CA" transform="translate(448,458)"/>
<path d="M0 0 C2.3125 1.125 2.3125 1.125 4 3 C4.25 6.6875 4.25 6.6875 4 10 C3.360625 10.28875 2.72125 10.5775 2.0625 10.875 C-0.15206079 11.82823451 -0.15206079 11.82823451 -1 14 C-4.52593616 13.34704886 -7.22945596 12.3087867 -10 10 C-10.3607834 6.57255771 -10.55938978 4.11877956 -9 1 C-5.73372134 -1.21640338 -3.71590131 -1.20766793 0 0 Z " fill="#9E8E91" transform="translate(466,12)"/>
<path d="M0 0 C0 0.66 0 1.32 0 2 C1.32 2.33 2.64 2.66 4 3 C4.84454356 6.37817425 5.10844919 8.67465243 4 12 C2.68 12 1.36 12 0 12 C0 12.66 0 13.32 0 14 C-1.65 14 -3.3 14 -5 14 C-5 13.34 -5 12.68 -5 12 C-6.32 11.67 -7.64 11.34 -9 11 C-9.43338684 5.71268058 -9.43338684 5.71268058 -9 3 C-5.80434964 0.15942191 -4.3252957 0 0 0 Z " fill="#748A96" transform="translate(346,458)"/>
<path d="M0 0 C3.96 0 7.92 0 12 0 C12 3.96 12 7.92 12 12 C8.04 12 4.08 12 0 12 C0 8.04 0 4.08 0 0 Z " fill="#FBC09B" transform="translate(30,14)"/>
<path d="M0 0 C6.27 0 12.54 0 19 0 C19 6.27 19 12.54 19 19 C17.88633253 17.32949879 16.79109477 15.64472804 15.7734375 13.9140625 C12.27576136 8.18881608 8.88136287 5.12251461 3 2 C2.01 1.34 1.02 0.68 0 0 Z " fill="#F9F9F9" transform="translate(481,0)"/>
<path d="M0 0 C5.94 0 11.88 0 18 0 C14 3 14 3 11.125 4.625 C6.96587908 7.7859319 4.69696728 11.58899629 2 16 C1.34 16.99 0.68 17.98 0 19 C0 12.73 0 6.46 0 0 Z " fill="#FAFAFA" transform="translate(0,0)"/>
<path d="M0 0 C1.9375 1.0625 1.9375 1.0625 3 3 C2.875 6.5625 2.875 6.5625 2 10 C-1.23253796 12.15502531 -2.25150923 12.46856135 -6 12 C-7.8125 10.875 -7.8125 10.875 -9 9 C-9.39365568 5.85075452 -9.52854531 3.88090884 -7.875 1.125 C-5.11909116 -0.52854531 -3.14924548 -0.39365568 0 0 Z " fill="#F6BE9D" transform="translate(59,14)"/>
<path d="M0 0 C3.12578143 1.6720747 5.39281175 3.7856235 7 7 C7.60644601 12.38004242 8.0316689 16.595784 4.75 21.0625 C-0.10959425 24.48630504 -2.86952382 25.63418719 -9 25 C-12.70390021 22.97333762 -14.65363011 21.51955484 -17 18 C-17.65237324 13.62566572 -18.03401151 8.98730094 -15.94921875 4.98046875 C-11.41119977 -0.52137727 -6.79731424 -0.95766142 0 0 Z M-14.8125 6.25 C-16.33107326 9.76669597 -16.40718483 12.19960827 -16 16 C-14.34860695 19.5386994 -13.28394771 20.81070153 -10 23 C-5.06703346 23.79429122 -1.20172722 23.7602764 3.0625 21.0625 C5.59986997 17.05181844 6.42517702 13.73530481 6 9 C4.29101366 5.38483658 3.04357603 3.58868391 -0.4375 1.625 C-6.67682864 0.10321253 -10.67885368 1.11857698 -14.8125 6.25 Z " fill="#DD9E68" transform="translate(468,6)"/>
<path d="M0 0 C5.28 0 10.56 0 16 0 C16 4.95 16 9.9 16 15 C10.72 15 5.44 15 0 15 C0 10.05 0 5.1 0 0 Z M2 2 C2 5.63 2 9.26 2 13 C5.96 13 9.92 13 14 13 C14 9.37 14 5.74 14 2 C10.04 2 6.08 2 2 2 Z " fill="#E9D7CF" transform="translate(426,458)"/>
<path d="M0 0 C0.66 0.33 1.32 0.66 2 1 C1 4 1 4 -0.60375977 4.91967773 C-1.29268311 5.17177002 -1.98160645 5.4238623 -2.69140625 5.68359375 C-3.46218506 5.96976562 -4.23296387 6.2559375 -5.02709961 6.55078125 C-5.86378174 6.84339844 -6.70046387 7.13601563 -7.5625 7.4375 C-8.4294751 7.74171875 -9.2964502 8.0459375 -10.18969727 8.359375 C-11.96238121 8.97070139 -13.73805183 9.57343573 -15.51660156 10.16748047 C-17.02122094 10.67188 -18.52196048 11.18836625 -20.01464844 11.72705078 C-33.6491523 16.60696034 -47.80261726 14.95167953 -62 14 C-62 13.67 -62 13.34 -62 13 C-61.22100342 12.99589111 -60.44200684 12.99178223 -59.6394043 12.98754883 C-39.01057029 12.79765235 -20.89672112 11.46864959 -2.58984375 1.2578125 C-1.73519531 0.84273438 -0.88054687 0.42765625 0 0 Z " fill="#BCBCBC" transform="translate(290,390)"/>
<path d="M0 0 C3 1 3 1 4.16796875 2.77734375 C4.50441406 3.49019531 4.84085938 4.20304687 5.1875 4.9375 C5.53167969 5.64777344 5.87585938 6.35804687 6.23046875 7.08984375 C7 9 7 9 7 11 C3.04 11 -0.92 11 -5 11 C-3.35 7.37 -1.7 3.74 0 0 Z " fill="#F0BB9E" transform="translate(74,15)"/>
<path d="M0 0 C7.59882836 2.32398775 12.5842056 5.27975313 17 12 C18.4375 15.5 18.4375 15.5 19 18 C18.01 18.33 17.02 18.66 16 19 C15.484375 17.80375 14.96875 16.6075 14.4375 15.375 C11.86511762 10.26646598 8.37717808 6.36664016 2.9921875 4.1875 C0.8906117 3.54620186 0.8906117 3.54620186 -2 3 C-1.34 2.67 -0.68 2.34 0 2 C0 1.34 0 0.68 0 0 Z " fill="#0F131A" transform="translate(480,0)"/>
<path d="M0 0 C-1.32325926 2.64651851 -2.45235013 2.67499058 -5.1875 3.6875 C-11.36235122 6.30296246 -14.37071304 10.55606956 -18 16 C-18.66 16 -19.32 16 -20 16 C-19.19270206 10.12409727 -16.27621198 6.93214895 -12 3 C-7.88760429 0.18706018 -4.91837497 -1.64672865 0 0 Z " fill="#101319" transform="translate(22,1)"/>
<path d="M0 0 C0 0.66 0 1.32 0 2 C1.32 2.33 2.64 2.66 4 3 C4.84454356 6.37817425 5.10844919 8.67465243 4 12 C2.68 12 1.36 12 0 12 C0 12.66 0 13.32 0 14 C-1.65 14 -3.3 14 -5 14 C-5 13.34 -5 12.68 -5 12 C-6.32 11.67 -7.64 11.34 -9 11 C-9.43338684 5.71268058 -9.43338684 5.71268058 -9 3 C-5.80434964 0.15942191 -4.3252957 0 0 0 Z M-7 4 C-7.80946422 7.10197397 -7.80946422 7.10197397 -8 10 C-5.8552976 11.75528019 -5.8552976 11.75528019 -3 13 C0.26814404 12.30059064 0.26814404 12.30059064 3 11 C3 8.69 3 6.38 3 4 C2.01 3.67 1.02 3.34 0 3 C-0.33 2.34 -0.66 1.68 -1 1 C-3.91123068 1 -4.92815097 1.99498481 -7 4 Z " fill="#DD9F63" transform="translate(346,458)"/>
<path d="M0 0 C2.97 0 5.94 0 9 0 C9 2.31 9 4.62 9 7 C6.03 7 3.06 7 0 7 C0 4.69 0 2.38 0 0 Z " fill="#FAE6DE" transform="translate(430,463)"/>
<path d="M0 0 C0.66 0.33 1.32 0.66 2 1 C1.04555011 4.81779957 0.06001529 5.9564595 -3.1875 8.3125 C-6.91278599 10.20605823 -9.80811553 10.60972865 -14 10 C-17.65362673 8.13871846 -19.53176912 6.93646177 -21.375 3.25 C-21.58125 2.5075 -21.7875 1.765 -22 1 C-21.34 1 -20.68 1 -20 1 C-19.731875 1.804375 -19.46375 2.60875 -19.1875 3.4375 C-18.795625 4.283125 -18.40375 5.12875 -18 6 C-13.67380356 7.44206548 -9.52121914 7.54847576 -5 7 C-1.90200019 4.80873184 -1.19647888 3.58943664 0 0 Z " fill="#C69877" transform="translate(473,21)"/>
<path d="M0 0 C0 0.33 0 0.66 0 1 C-1.18078125 1.27714844 -2.3615625 1.55429688 -3.578125 1.83984375 C-5.13542016 2.2057143 -6.69271163 2.57160054 -8.25 2.9375 C-9.02730469 3.11990234 -9.80460938 3.30230469 -10.60546875 3.49023438 C-11.73662109 3.75610352 -11.73662109 3.75610352 -12.890625 4.02734375 C-13.58188477 4.18968506 -14.27314453 4.35202637 -14.98535156 4.51928711 C-17.02573892 4.97573408 -17.02573892 4.97573408 -19.06933594 5.68579102 C-21 6 -21 6 -24 4 C-21.12891082 3.13024657 -18.25437467 2.27899167 -15.375 1.4375 C-14.56675781 1.19064453 -13.75851563 0.94378906 -12.92578125 0.68945312 C-8.24346932 -0.66194585 -4.84164413 -1.30834073 0 0 Z " fill="#CACACA" transform="translate(234,235)"/>
<path d="M0 0 C1 2 1 2 0.00390625 5.0390625 C-0.47175781 6.22242188 -0.94742187 7.40578125 -1.4375 8.625 C-1.91058594 9.81351563 -2.38367188 11.00203125 -2.87109375 12.2265625 C-3.24363281 13.14179688 -3.61617188 14.05703125 -4 15 C-5.32 15 -6.64 15 -8 15 C-7.34 12.03 -6.68 9.06 -6 6 C-5.34 6.33 -4.68 6.66 -4 7 C-2.68 4.69 -1.36 2.38 0 0 Z " fill="#505050" transform="translate(339,163)"/>
<path d="M0 0 C0.66 0.33 1.32 0.66 2 1 C1 4 1 4 -1.1796875 5.203125 C-2.06914062 5.54859375 -2.95859375 5.8940625 -3.875 6.25 C-4.75929688 6.60578125 -5.64359375 6.9615625 -6.5546875 7.328125 C-9 8 -9 8 -12 7 C-10.04754815 5.80285445 -8.08785003 4.61751926 -6.125 3.4375 C-5.03445313 2.77621094 -3.94390625 2.11492187 -2.8203125 1.43359375 C-1.88960938 0.96050781 -0.95890625 0.48742187 0 0 Z " fill="#D9D9D9" transform="translate(290,390)"/>
<path d="M0 0 C1.32 0.66 2.64 1.32 4 2 C3.67 3.32 3.34 4.64 3 6 C1.35 5.67 -0.3 5.34 -2 5 C-1.125 1.125 -1.125 1.125 0 0 Z " fill="#B39384" transform="translate(462,15)"/>
<path d="M0 0 C1.98 0.495 1.98 0.495 4 1 C3.67 2.65 3.34 4.3 3 6 C1.68 5.67 0.36 5.34 -1 5 C-0.67 3.35 -0.34 1.7 0 0 Z " fill="#C29A70" transform="translate(342,462)"/>
<path d="M0 0 C0.33 0 0.66 0 1 0 C1.01417969 0.56847656 1.02835937 1.13695312 1.04296875 1.72265625 C1.42934329 7.97774682 3.00675974 11.18763354 7 16 C3.34683329 14.75023244 2.21934164 14.32901247 0 11 C-0.1953125 8.30078125 -0.1953125 8.30078125 -0.125 5.3125 C-0.10695313 4.31863281 -0.08890625 3.32476562 -0.0703125 2.30078125 C-0.04710937 1.54152344 -0.02390625 0.78226562 0 0 Z " fill="#DC9361" transform="translate(332,460)"/>
<path d="M0 0 C0.33 0.66 0.66 1.32 1 2 C1.99 2.33 2.98 2.66 4 3 C3.34 4.32 2.68 5.64 2 7 C1.34 6.01 0.68 5.02 0 4 C-0.99 4 -1.98 4 -3 4 C-3.66 4.66 -4.32 5.32 -5 6 C-5.33 5.01 -5.66 4.02 -6 3 C-2.25 0 -2.25 0 0 0 Z " fill="#67879C" transform="translate(345,459)"/>
<path d="M0 0 C0.66 0 1.32 0 2 0 C2 0.66 2 1.32 2 2 C3.32 2 4.64 2 6 2 C6 3.65 6 5.3 6 7 C5.67 6.34 5.34 5.68 5 5 C2.88153715 4.31270746 2.88153715 4.31270746 0.4375 3.875 C-0.38878906 3.70742187 -1.21507812 3.53984375 -2.06640625 3.3671875 C-2.70449219 3.24601563 -3.34257812 3.12484375 -4 3 C-2.68 2.67 -1.36 2.34 0 2 C0 1.34 0 0.68 0 0 Z " fill="#607EBB" transform="translate(462,12)"/>
<path d="M0 0 C0.33 0.66 0.66 1.32 1 2 C-0.3125 4.625 -0.3125 4.625 -2 7 C-2.66 7 -3.32 7 -4 7 C-3.6875 4.625 -3.6875 4.625 -3 2 C-2.01 1.34 -1.02 0.68 0 0 Z " fill="#0B0D11" transform="translate(6,10)"/>
</svg>
